<svg xmlns="http://www.w3.org/2000/svg" xmlns:xlink="http://www.w3.org/1999/xlink" width="1024"
    zoomAndPan="magnify" viewBox="0 0 768 768" height="1024"
    preserveAspectRatio="xMidYMid meet" version="1.0">
    <path fill="#393536"
        d="M 79.394531 361.449219 L 79.394531 281.207031 C 95.664062 280.320312 107.925781 277.863281 116.175781 273.847656 C 124.421875 269.832031 131.5625 263.101562 137.578125 253.621094 C 143.605469 244.148438 147.726562 232.285156 149.957031 218.011719 C 151.734375 207.316406 152.632812 188.703125 152.632812 162.175781 C 152.632812 118.9375 154.636719 88.785156 158.648438 71.738281 C 162.664062 54.691406 169.90625 40.976562 180.386719 30.613281 C 190.863281 20.246094 206.140625 12.058594 226.203125 6.042969 C 239.800781 2.027344 261.203125 0.0234375 290.414062 0.0234375 L 308.136719 0.0234375 L 308.136719 79.933594 C 283.390625 79.933594 267.503906 81.328125 260.484375 84.109375 C 253.460938 86.902344 248.277344 91.125 244.929688 96.808594 C 241.585938 102.496094 239.917969 112.25 239.917969 126.070312 C 239.917969 140.113281 238.910156 166.75 236.902344 205.976562 C 235.789062 228.042969 232.894531 245.933594 228.210938 259.636719 C 223.527344 273.347656 217.558594 284.660156 210.316406 293.574219 C 203.070312 302.488281 191.976562 311.742188 177.042969 321.328125 C 190.199219 328.90625 200.953125 337.765625 209.316406 347.90625 C 217.679688 358.050781 224.082031 370.363281 228.542969 384.855469 C 233.003906 399.339844 235.902344 418.734375 237.238281 443.023438 C 238.796875 480.027344 239.578125 503.652344 239.578125 513.910156 C 239.578125 528.617188 241.363281 538.867188 244.929688 544.667969 C 248.496094 550.460938 253.902344 554.867188 261.152344 557.875 C 268.390625 560.882812 284.058594 562.386719 308.136719 562.386719 L 308.136719 642.628906 L 290.414062 642.628906 C 260.316406 642.628906 237.238281 640.226562 221.1875 635.441406 C 205.132812 630.648438 191.59375 622.679688 180.554688 611.535156 C 169.519531 600.386719 162.101562 586.621094 158.316406 570.242188 C 154.519531 553.859375 152.632812 528.058594 152.632812 492.84375 C 152.632812 451.839844 150.84375 425.195312 147.28125 412.933594 C 142.371094 395.105469 134.960938 382.34375 125.039062 374.652344 C 115.117188 366.964844 99.898438 362.5625 79.394531 361.449219 "
        fill-opacity="1" fill-rule="nonzero" />
    <path fill="#eeb30d"
        d="M 586.753906 166.488281 L 534.40625 166.488281 L 534.40625 114.15625 L 586.753906 114.15625 L 586.753906 166.488281 "
        fill-opacity="1" fill-rule="nonzero" />
    <path fill="#eeb30d"
        d="M 574.394531 271.144531 L 534.40625 271.144531 L 534.40625 231.164062 L 574.394531 231.164062 L 574.394531 271.144531 "
        fill-opacity="1" fill-rule="nonzero" />
    <path fill="#eeb30d"
        d="M 422.117188 206.472656 L 422.117188 166.488281 L 462.113281 166.488281 L 462.113281 206.472656 Z M 523.847656 393.398438 C 513.8125 385.707031 506.34375 372.949219 501.4375 355.121094 C 498.742188 345.058594 497.136719 325.777344 496.613281 297.3125 L 462.113281 297.3125 L 462.113281 244.980469 L 495.851562 244.980469 C 495.015625 224.800781 493.25 209.078125 490.566406 197.808594 C 486.667969 181.425781 479.25 167.605469 468.332031 156.355469 C 457.40625 145.101562 443.917969 137.125 427.863281 132.441406 C 411.808594 127.761719 388.742188 125.425781 358.636719 125.425781 L 340.914062 125.425781 L 340.914062 205.332031 C 366.105469 205.332031 382.328125 206.835938 389.574219 209.84375 C 396.816406 212.855469 401.832031 217.148438 404.625 222.714844 C 407.410156 228.292969 408.914062 239.433594 409.136719 256.152344 C 410.25 309.199219 412.03125 343.527344 414.488281 359.132812 C 418.273438 381.867188 425.40625 400.585938 435.890625 415.296875 C 443.46875 425.554688 455.507812 436.03125 472.011719 446.726562 C 459.300781 454.078125 448.871094 462.605469 440.742188 472.304688 C 432.597656 482 426.082031 493.816406 421.175781 507.746094 C 416.273438 521.675781 413.265625 540.234375 412.144531 563.414062 C 410.359375 601.753906 409.414062 627.714844 409.308594 641.3125 C 409.1875 654.90625 407.410156 664.550781 403.953125 670.234375 C 400.492188 675.921875 395.09375 680.265625 387.734375 683.277344 C 380.375 686.285156 364.765625 687.789062 340.914062 687.789062 L 340.914062 768.03125 L 358.636719 768.03125 C 387.84375 768.03125 409.25 766.023438 422.84375 762.011719 C 443.136719 755.992188 458.511719 747.808594 469.003906 737.441406 C 479.476562 727.074219 486.667969 713.308594 490.566406 696.144531 C 494.46875 678.976562 496.425781 648.78125 496.425781 605.535156 C 496.425781 579.242188 497.3125 560.738281 499.097656 550.039062 C 501.550781 535.777344 505.730469 523.90625 511.636719 514.433594 C 517.542969 504.960938 524.625 498.214844 532.875 494.207031 C 541.117188 490.191406 553.390625 487.738281 569.664062 486.847656 L 569.664062 406.605469 C 549.144531 405.492188 533.878906 401.085938 523.847656 393.398438 "
        fill-opacity="1" fill-rule="nonzero" />
    <path fill="#eeb30d"
        d="M 688.8125 64.851562 L 648.816406 64.851562 L 648.816406 24.867188 L 688.8125 24.867188 L 688.8125 64.851562 "
        fill-opacity="1" fill-rule="nonzero" />
    <path fill="#eeb30d"
        d="M 488.28125 114.15625 L 413.628906 114.15625 L 413.628906 39.519531 L 488.28125 39.519531 L 488.28125 114.15625 "
        fill-opacity="1" fill-rule="nonzero" />
</svg>